<svg width="169" height="50" viewBox="0 0 169 50" fill="none" xmlns="http://www.w3.org/2000/svg">
<path d="M33.4091 9C30.3748 9 27.4626 10.4125 25.5617 12.6447C23.6609 10.4125 20.7487 9 17.7143 9C12.3432 9 8.12305 13.2202 8.12305 18.5913C8.12305 25.1831 14.0522 30.5542 23.0331 38.7155L25.5617 41L28.0903 38.6981C37.0713 30.5542 43.0004 25.1831 43.0004 18.5913C43.0004 13.2202 38.7803 9 33.4091 9ZM25.7361 36.1172L25.5617 36.2916L25.3874 36.1172C17.0865 28.6011 11.6108 23.6311 11.6108 18.5913C11.6108 15.1035 14.2266 12.4877 17.7143 12.4877C20.3999 12.4877 23.0157 14.2142 23.9399 16.6033H27.201C28.1078 14.2142 30.7236 12.4877 33.4091 12.4877C36.8969 12.4877 39.5127 15.1035 39.5127 18.5913C39.5127 23.6311 34.0369 28.6011 25.7361 36.1172Z" fill="url(#paint0_linear_173202_526)"/>
<g clip-path="url(#clip0_173202_526)">
<path d="M95.4997 13.4993H92.333C92.333 10.0002 89.4988 7.16602 85.9997 7.16602C82.5005 7.16602 79.6663 10.0002 79.6663 13.4993H76.4997C74.758 13.4993 73.333 14.9243 73.333 16.666V35.666C73.333 37.4077 74.758 38.8327 76.4997 38.8327H95.4997C97.2413 38.8327 98.6663 37.4077 98.6663 35.666V16.666C98.6663 14.9243 97.2413 13.4993 95.4997 13.4993ZM85.9997 10.3327C87.7413 10.3327 89.1663 11.7577 89.1663 13.4993H82.833C82.833 11.7577 84.258 10.3327 85.9997 10.3327ZM95.4997 35.666H76.4997V16.666H79.6663V19.8327C79.6663 20.7035 80.3788 21.416 81.2497 21.416C82.1205 21.416 82.833 20.7035 82.833 19.8327V16.666H89.1663V19.8327C89.1663 20.7035 89.8788 21.416 90.7497 21.416C91.6205 21.416 92.333 20.7035 92.333 19.8327V16.666H95.4997V35.666Z" fill="#002F52"/>
</g>
<path d="M145 9C136.168 9 129 16.168 129 25C129 33.832 136.168 41 145 41C153.832 41 161 33.832 161 25C161 16.168 153.832 9 145 9ZM137.112 35.048C137.8 33.608 141.992 32.2 145 32.2C148.008 32.2 152.216 33.608 152.888 35.048C150.712 36.776 147.976 37.8 145 37.8C142.024 37.8 139.288 36.776 137.112 35.048ZM155.176 32.728C152.888 29.944 147.336 29 145 29C142.664 29 137.112 29.944 134.824 32.728C133.192 30.584 132.2 27.912 132.2 25C132.2 17.944 137.944 12.2 145 12.2C152.056 12.2 157.8 17.944 157.8 25C157.8 27.912 156.808 30.584 155.176 32.728ZM145 15.4C141.896 15.4 139.4 17.896 139.4 21C139.4 24.104 141.896 26.6 145 26.6C148.104 26.6 150.6 24.104 150.6 21C150.6 17.896 148.104 15.4 145 15.4ZM145 23.4C143.672 23.4 142.6 22.328 142.6 21C142.6 19.672 143.672 18.6 145 18.6C146.328 18.6 147.4 19.672 147.4 21C147.4 22.328 146.328 23.4 145 23.4Z" fill="#002F52"/>
<defs>
<linearGradient id="paint0_linear_173202_526" x1="22.6957" y1="5.15999" x2="72.9453" y2="12.4119" gradientUnits="userSpaceOnUse">
<stop stop-color="#002F52"/>
<stop offset="1" stop-color="#326589"/>
</linearGradient>
<clipPath id="clip0_173202_526">
<rect width="38" height="38" fill="white" transform="translate(67 4)"/>
</clipPath>
</defs>
</svg>
